# xmcd
#
# Track frame offsets:
#	150
#	12197
#	35630
#	62520
#	79355
#	93522
#	120242
#	146737
#	163395
#	175920
#	196587
#	222192
#
# Disc length: 3091 seconds
#
# Revision: 1
# Processed by: cddbd v1.4PL0 Copyright (c) Steve Scherf et al.
# Submitted via: audiograbber 1.80.04
#
DISCID=a10c110c
DTITLE=Fat Vinny and the Wiseguys - Different Kind of Blues, A
DYEAR=2001
DGENRE=Blues
TTITLE0=2 to 4
TTITLE1=Jockey Full of Bourbon
TTITLE2=Time Was (The Norfolk Southern Song)
TTITLE3=About Time for a Love Song
TTITLE4=Vet Bill Blues
TTITLE5=Tumblin' Down
TTITLE6=Crabcake Sammich
TTITLE7=Picked the Wrong Day
TTITLE8="Where Ya Been?" Look, The
TTITLE9=One More Last Trip Down
TTITLE10=Different Kind of Blues, A
TTITLE11=2 to 4 (Reprise)
EXTD=
EXTT0=
EXTT1=
EXTT2=
EXTT3=
EXTT4=
EXTT5=
EXTT6=
EXTT7=
EXTT8=
EXTT9=
EXTT10=
EXTT11=
PLAYORDER=
